<?xml version="1.0" standalone="no"?>
<!DOCTYPE svg PUBLIC "-//W3C//DTD SVG 20010904//EN"
 "http://www.w3.org/TR/2001/REC-SVG-20010904/DTD/svg10.dtd">
<svg version="1.0" xmlns="http://www.w3.org/2000/svg"
 width="280.000000pt" height="187.000000pt" viewBox="0 0 280.000000 187.000000"
 preserveAspectRatio="xMidYMid meet">

<g transform="translate(0.000000,187.000000) scale(0.100000,-0.100000)"
fill="#000000" stroke="none">
<path d="M0 1555 l0 -315 43 -1 c23 -1 184 0 359 1 290 2 316 1 320 -15 1 -9
15 19 30 63 16 43 35 96 43 116 l15 36 64 0 64 0 12 -37 c6 -21 15 -47 20 -58
4 -11 15 -37 22 -59 l15 -38 28 58 c58 119 193 221 340 259 104 27 335 13 393
-24 20 -12 -14 -125 -34 -117 -125 48 -282 47 -385 -2 -71 -34 -141 -101 -165
-158 -8 -20 -10 -33 -5 -29 6 3 11 -2 11 -12 0 -10 4 -14 8 -8 4 6 22 15 40
22 28 10 34 9 45 -7 13 -18 13 -18 25 1 7 11 17 17 22 14 6 -3 10 3 10 14 0
11 4 22 9 26 5 3 13 20 16 37 4 18 16 52 26 75 l18 43 65 0 64 0 32 -96 c18
-52 37 -97 44 -99 32 -12 164 -15 613 -15 328 0 493 -3 493 -10 0 -5 18 -10
40 -10 l40 0 0 330 0 330 -1400 0 -1400 0 0 -315z"/>
<path d="M868 1305 c-3 -5 -9 -26 -12 -45 l-7 -35 16 28 c15 26 18 76 3 52z"/>
<path d="M1457 1284 c-3 -16 -8 -40 -12 -54 -5 -21 -4 -22 5 -8 6 10 17 15 26
11 12 -4 14 0 8 23 -12 50 -21 60 -27 28z"/>
<path d="M877 1241 c-4 -17 -3 -21 5 -13 5 5 8 16 6 23 -3 8 -7 3 -11 -10z"/>
<path d="M1316 1213 c-6 -14 -5 -15 5 -6 7 7 10 15 7 18 -3 3 -9 -2 -12 -12z"/>
<path d="M1621 1214 c0 -11 3 -14 6 -6 3 7 2 16 -1 19 -3 4 -6 -2 -5 -13z"/>
<path d="M1645 1220 c3 -5 8 -10 11 -10 2 0 4 5 4 10 0 6 -5 10 -11 10 -5 0
-7 -4 -4 -10z"/>
<path d="M841 1204 c0 -11 3 -14 6 -6 3 7 2 16 -1 19 -3 4 -6 -2 -5 -13z"/>
<path d="M441 466 c-9 -11 -8 -18 4 -30 9 -9 21 -16 27 -16 6 0 8 -9 5 -20 -3
-11 -1 -18 4 -14 16 9 10 33 -11 44 -25 13 -26 37 -2 43 14 4 14 5 1 6 -9 0
-22 -5 -28 -13z"/>
<path d="M603 430 c0 -30 2 -43 4 -27 2 15 2 39 0 55 -2 15 -4 2 -4 -28z"/>
<path d="M1293 430 c0 -30 2 -43 4 -27 2 15 2 39 0 55 -2 15 -4 2 -4 -28z"/>
<path d="M1416 464 c-11 -27 -7 -86 5 -78 6 3 8 17 5 30 -4 13 -3 24 2 24 4 0
8 9 8 20 0 24 -11 26 -20 4z"/>
<path d="M1799 455 c-7 -6 2 -75 10 -75 3 0 6 16 5 35 -1 35 -6 49 -15 40z"/>
<path d="M522 441 c-18 -11 -12 -53 8 -58 12 -4 12 -3 2 5 -19 13 -11 46 12
50 16 3 18 -1 14 -27 -5 -37 -1 -40 11 -8 14 36 -15 59 -47 38z"/>
<path d="M687 443 c-10 -9 -9 -63 1 -63 5 0 9 16 10 35 1 36 0 40 -11 28z"/>
<path d="M790 435 c-13 -16 -5 -55 12 -55 7 0 7 5 -1 14 -15 18 -3 48 18 44
10 -2 16 -13 16 -30 -1 -15 3 -24 7 -22 14 9 8 52 -8 58 -23 9 -30 8 -44 -9z"/>
<path d="M874 436 c-8 -22 -1 -49 14 -52 7 -1 8 0 2 3 -19 9 -10 23 16 23 19
0 25 5 22 18 -4 22 -46 29 -54 8z m41 -6 c3 -5 -3 -10 -15 -10 -12 0 -18 5
-15 10 3 6 10 10 15 10 5 0 12 -4 15 -10z"/>
<path d="M954 438 c-4 -6 0 -16 8 -22 8 -6 17 -18 21 -26 4 -12 6 -12 6 2 1 9
-7 22 -16 27 -16 9 -16 12 -3 21 9 6 10 10 3 10 -6 0 -15 -5 -19 -12z"/>
<path d="M1052 438 c-15 -15 -16 -45 -2 -53 6 -3 7 1 4 9 -5 12 1 16 22 17
l29 1 -30 8 c-24 5 -27 8 -13 14 9 4 22 4 29 0 8 -4 9 -3 5 4 -9 15 -29 15
-44 0z"/>
<path d="M1120 413 c0 -20 3 -33 6 -30 11 10 13 67 3 67 -5 0 -9 -16 -9 -37z"/>
<path d="M1158 443 c6 -3 13 -19 13 -36 l1 -32 7 30 c3 17 13 30 21 30 8 0 18
-13 21 -30 6 -27 7 -27 8 -5 1 36 -10 47 -49 47 -19 0 -29 -2 -22 -4z"/>
<path d="M1327 418 c8 -46 13 -48 13 -5 0 21 -4 37 -10 37 -5 0 -7 -14 -3 -32z"/>
<path d="M1368 438 c5 -7 12 -24 15 -38 4 -22 4 -21 6 6 1 21 -5 34 -15 38
-13 5 -14 3 -6 -6z"/>
<path d="M1460 435 c-14 -17 -10 -47 8 -53 11 -3 11 -1 1 17 -16 24 0 47 25
38 18 -7 22 -43 6 -50 -6 -3 -5 -4 2 -3 18 4 23 47 6 57 -19 13 -34 11 -48 -6z"/>
<path d="M1540 416 c0 -20 2 -36 4 -36 8 0 12 61 4 66 -4 3 -8 -11 -8 -30z"/>
<path d="M1590 413 c0 -43 5 -41 13 5 4 18 2 32 -3 32 -6 0 -10 -16 -10 -37z"/>
<path d="M1627 443 c6 -4 13 -22 16 -38 4 -27 5 -27 3 4 0 21 -7 36 -16 38
-10 3 -11 2 -3 -4z"/>
<path d="M1678 438 c7 -7 12 -23 13 -37 0 -15 3 -20 6 -13 7 19 -6 62 -19 62
-9 0 -9 -3 0 -12z"/>
<path d="M1743 444 c23 -7 22 -20 -3 -27 -12 -3 -20 -13 -19 -24 1 -16 2 -16
6 0 2 9 11 17 20 17 9 0 13 -6 9 -15 -3 -8 -1 -15 5 -15 6 0 9 15 7 32 -2 24
-8 33 -23 35 -16 1 -16 1 -2 -3z"/>
<path d="M1853 415 c0 -22 2 -30 4 -17 2 12 2 30 0 40 -3 9 -5 -1 -4 -23z"/>
<path d="M1890 435 c-15 -18 -10 -47 10 -53 12 -4 13 -2 3 9 -19 20 -16 39 10
49 15 6 17 9 6 9 -9 1 -22 -6 -29 -14z"/>
<path d="M1960 446 c0 -2 9 -6 20 -9 11 -3 20 -1 20 4 0 5 -9 9 -20 9 -11 0
-20 -2 -20 -4z"/>
<path d="M634 418 c3 -13 6 -26 6 -30 0 -5 4 -8 8 -8 5 0 7 14 4 30 -2 17 -9
30 -14 30 -6 0 -8 -10 -4 -22z"/>
<path d="M716 424 c-3 -9 -6 -17 -6 -19 0 -9 33 -35 43 -35 6 0 2 7 -10 15
-14 10 -19 22 -16 35 6 24 -2 27 -11 4z"/>
<path d="M1953 405 c-3 -9 -3 -19 1 -22 3 -4 6 1 6 10 0 10 7 17 15 17 8 0 15
-7 15 -16 0 -8 5 -12 10 -9 6 3 10 13 10 21 0 19 -49 18 -57 -1z"/>
</g>
</svg>
